<svg width="713" height="982" viewBox="0 0 713 982" fill="none" xmlns="http://www.w3.org/2000/svg">
<g clip-path="url(#clip0_3107_54251)">
<rect width="713" height="982" fill="#F1F7FF" style="fill:#F1F7FF;fill:color(display-p3 0.9451 0.9686 1.0000);fill-opacity:1;"/>
<path d="M308.326 493.353C304.899 493.353 301.824 492.748 299.103 491.538C296.381 490.278 294.214 488.589 292.601 486.473C291.038 484.356 290.181 482.012 290.03 479.441H300.69C300.892 481.054 301.673 482.39 303.034 483.448C304.445 484.507 306.184 485.036 308.251 485.036C310.267 485.036 311.829 484.633 312.938 483.826C314.098 483.02 314.677 481.987 314.677 480.727C314.677 479.366 313.971 478.358 312.56 477.702C311.199 476.997 309.007 476.241 305.983 475.434C302.858 474.678 300.287 473.897 298.271 473.091C296.305 472.284 294.592 471.049 293.13 469.386C291.719 467.723 291.013 465.48 291.013 462.657C291.013 460.339 291.668 458.222 292.979 456.306C294.34 454.391 296.255 452.879 298.725 451.77C301.245 450.661 304.193 450.107 307.57 450.107C312.56 450.107 316.542 451.367 319.516 453.887C322.49 456.357 324.128 459.709 324.43 463.942H314.299C314.148 462.279 313.442 460.969 312.182 460.011C310.973 459.003 309.334 458.499 307.268 458.499C305.353 458.499 303.866 458.852 302.807 459.557C301.799 460.263 301.295 461.246 301.295 462.506C301.295 463.917 302.001 465.001 303.412 465.757C304.823 466.463 307.016 467.193 309.99 467.949C313.014 468.706 315.509 469.487 317.475 470.293C319.44 471.1 321.129 472.36 322.54 474.073C324.002 475.737 324.758 477.954 324.808 480.727C324.808 483.146 324.128 485.313 322.767 487.229C321.456 489.144 319.541 490.656 317.021 491.765C314.551 492.823 311.653 493.353 308.326 493.353ZM356.783 492.672L342.569 474.829V492.672H331.985V436.725H342.569V468.554L356.632 450.787H370.392L351.944 471.805L370.543 492.672H356.783ZM371.903 471.578C371.903 467.345 372.734 463.59 374.398 460.313C376.111 457.037 378.405 454.517 381.278 452.753C384.201 450.989 387.452 450.107 391.03 450.107C394.155 450.107 396.877 450.737 399.196 451.997C401.565 453.257 403.455 454.845 404.866 456.76V450.787H415.526V492.672H404.866V486.548C403.505 488.514 401.615 490.152 399.196 491.462C396.827 492.723 394.08 493.353 390.955 493.353C387.427 493.353 384.201 492.445 381.278 490.631C378.405 488.816 376.111 486.271 374.398 482.995C372.734 479.668 371.903 475.863 371.903 471.578ZM404.866 471.73C404.866 469.159 404.362 466.967 403.354 465.152C402.346 463.287 400.985 461.876 399.271 460.918C397.558 459.91 395.718 459.406 393.752 459.406C391.787 459.406 389.972 459.885 388.309 460.843C386.645 461.8 385.285 463.212 384.226 465.077C383.218 466.891 382.714 469.058 382.714 471.578C382.714 474.099 383.218 476.316 384.226 478.232C385.285 480.097 386.645 481.533 388.309 482.541C390.022 483.549 391.837 484.053 393.752 484.053C395.718 484.053 397.558 483.574 399.271 482.617C400.985 481.609 402.346 480.197 403.354 478.383C404.362 476.518 404.866 474.3 404.866 471.73ZM434.937 456.836C436.297 454.92 438.162 453.333 440.531 452.073C442.951 450.762 445.698 450.107 448.772 450.107C452.351 450.107 455.577 450.989 458.449 452.753C461.373 454.517 463.666 457.037 465.329 460.313C467.043 463.539 467.9 467.294 467.9 471.578C467.9 475.863 467.043 479.668 465.329 482.995C463.666 486.271 461.373 488.816 458.449 490.631C455.577 492.445 452.351 493.353 448.772 493.353C445.698 493.353 442.976 492.723 440.607 491.462C438.288 490.202 436.398 488.615 434.937 486.699V512.632H424.352V450.787H434.937V456.836ZM457.089 471.578C457.089 469.058 456.559 466.891 455.501 465.077C454.493 463.212 453.132 461.8 451.418 460.843C449.755 459.885 447.94 459.406 445.975 459.406C444.059 459.406 442.245 459.91 440.531 460.918C438.868 461.876 437.507 463.287 436.449 465.152C435.441 467.017 434.937 469.21 434.937 471.73C434.937 474.25 435.441 476.442 436.449 478.307C437.507 480.172 438.868 481.609 440.531 482.617C442.245 483.574 444.059 484.053 445.975 484.053C447.94 484.053 449.755 483.549 451.418 482.541C453.132 481.533 454.493 480.097 455.501 478.232C456.559 476.367 457.089 474.149 457.089 471.578ZM484.664 456.836C486.025 454.92 487.89 453.333 490.259 452.073C492.678 450.762 495.425 450.107 498.5 450.107C502.078 450.107 505.304 450.989 508.177 452.753C511.1 454.517 513.394 457.037 515.057 460.313C516.771 463.539 517.628 467.294 517.628 471.578C517.628 475.863 516.771 479.668 515.057 482.995C513.394 486.271 511.1 488.816 508.177 490.631C505.304 492.445 502.078 493.353 498.5 493.353C495.425 493.353 492.703 492.723 490.334 491.462C488.016 490.202 486.126 488.615 484.664 486.699V512.632H474.08V450.787H484.664V456.836ZM506.816 471.578C506.816 469.058 506.287 466.891 505.229 465.077C504.22 463.212 502.86 461.8 501.146 460.843C499.483 459.885 497.668 459.406 495.702 459.406C493.787 459.406 491.973 459.91 490.259 460.918C488.596 461.876 487.235 463.287 486.176 465.152C485.168 467.017 484.664 469.21 484.664 471.73C484.664 474.25 485.168 476.442 486.176 478.307C487.235 480.172 488.596 481.609 490.259 482.617C491.973 483.574 493.787 484.053 495.702 484.053C497.668 484.053 499.483 483.549 501.146 482.541C502.86 481.533 504.22 480.097 505.229 478.232C506.287 476.367 506.816 474.149 506.816 471.578Z" fill="#1F1F1F" style="fill:#1F1F1F;fill:color(display-p3 0.1227 0.1227 0.1227);fill-opacity:1;"/>
<path d="M244.382 444.87C244.382 443.376 243.168 442.152 241.681 442.29C238.77 442.561 235.912 443.267 233.202 444.389C229.658 445.857 226.438 448.009 223.725 450.722C221.012 453.434 218.86 456.655 217.392 460.199C216.27 462.909 215.564 465.767 215.294 468.677C215.156 470.165 216.38 471.378 217.873 471.378L241.677 471.378C243.171 471.378 244.382 470.167 244.382 468.674V444.87Z" fill="#D64550" style="fill:#D64550;fill:color(display-p3 0.8392 0.2706 0.3137);fill-opacity:1;"/>
<circle cx="263.295" cy="456.737" r="14.6066" fill="black" style="fill:black;fill-opacity:1;"/>
<rect x="215.147" y="475.672" width="29.2131" height="29.2131" rx="3.78689" fill="#EF8D42" style="fill:#EF8D42;fill:color(display-p3 0.9373 0.5529 0.2588);fill-opacity:1;"/>
<path fill-rule="evenodd" clip-rule="evenodd" d="M275.6 492.58C274.892 492.042 274.562 491.167 274.562 490.279C274.562 489.39 274.892 488.516 275.6 487.978L277.625 486.437C277.91 486.218 277.985 485.824 277.805 485.502L274.802 480.448C274.667 480.215 274.411 480.083 274.141 480.083C274.051 480.083 273.961 480.098 273.886 480.127L271.484 481.065C270.652 481.39 269.727 481.244 268.951 480.802C268.151 480.347 267.526 479.596 267.392 478.685L267.038 476.285C266.993 475.935 266.678 475.672 266.303 475.672H260.296C259.921 475.672 259.605 475.935 259.56 476.285L259.208 478.675C259.073 479.592 258.442 480.351 257.639 480.813C256.869 481.255 255.952 481.392 255.125 481.069L252.713 480.127C252.623 480.098 252.533 480.083 252.443 480.083C252.187 480.083 251.932 480.215 251.797 480.448L248.794 485.502C248.598 485.824 248.688 486.218 248.974 486.437L250.999 487.978C251.706 488.516 252.037 489.39 252.037 490.279C252.037 491.167 251.706 492.042 250.999 492.58L248.974 494.12C248.688 494.339 248.613 494.734 248.794 495.055L251.797 500.109C251.932 500.342 252.187 500.474 252.458 500.474C252.548 500.474 252.638 500.459 252.713 500.43L255.115 499.492C255.946 499.167 256.872 499.313 257.648 499.755C258.448 500.21 259.072 500.961 259.206 501.872L259.56 504.272C259.605 504.622 259.921 504.885 260.296 504.885H266.303C266.678 504.885 266.993 504.622 267.038 504.272L267.391 501.882C267.526 500.965 268.157 500.206 268.96 499.744C269.729 499.302 270.647 499.165 271.474 499.488L273.886 500.43C273.976 500.459 274.066 500.474 274.156 500.474C274.411 500.474 274.667 500.342 274.802 500.109L277.805 495.055C277.985 494.734 277.91 494.339 277.625 494.12L275.6 492.58ZM263.295 494.065C265.387 494.065 267.082 492.37 267.082 490.279C267.082 488.187 265.387 486.492 263.295 486.492C261.204 486.492 259.508 488.187 259.508 490.279C259.508 492.37 261.204 494.065 263.295 494.065Z" fill="#1F1F1F" style="fill:#1F1F1F;fill:color(display-p3 0.1227 0.1227 0.1227);fill-opacity:1;"/>
<circle cx="263.295" cy="456.737" r="14.6066" fill="#2A61A0" style="fill:#2A61A0;fill:color(display-p3 0.1653 0.3810 0.6285);fill-opacity:1;"/>
<path d="M115.084 10.8057C115.084 4.92917 110.31 0.114227 104.459 0.657578C93.0109 1.72063 81.7668 4.49763 71.1077 8.91277C57.1655 14.6878 44.4973 23.1525 33.8263 33.8234C23.1554 44.4943 14.6908 57.1626 8.9157 71.1048C4.50056 81.7639 1.72356 93.008 0.660507 104.456C0.117157 110.307 4.9321 115.081 10.8086 115.081L104.444 115.081C110.32 115.081 115.084 110.317 115.084 104.441V10.8057Z" fill="#E3EFFF" style="fill:#E3EFFF;fill:color(display-p3 0.8902 0.9373 1.0000);fill-opacity:1;"/>
<path d="M720.916 845.64C720.916 839.764 716.142 834.949 710.291 835.492C698.843 836.555 687.599 839.332 676.94 843.747C662.998 849.523 650.329 857.987 639.658 868.658C628.987 879.329 620.523 891.997 614.748 905.94C610.333 916.599 607.556 927.843 606.493 939.291C605.949 945.142 610.764 949.916 616.641 949.916L710.276 949.916C716.152 949.916 720.916 945.152 720.916 939.276V845.64Z" fill="#E3EFFF" style="fill:#E3EFFF;fill:color(display-p3 0.8884 0.9362 1.0000);fill-opacity:1;"/>
<path d="M171.916 603.64C171.916 597.764 167.142 592.949 161.29 593.492C149.842 594.555 138.598 597.332 127.939 601.747C113.997 607.523 101.329 615.987 90.6579 626.658C79.9869 637.329 71.5223 649.997 65.7472 663.94C61.3321 674.599 58.5551 685.843 57.4921 697.291C56.9487 703.142 61.7636 707.916 67.6402 707.916L161.275 707.916C167.152 707.916 171.916 703.152 171.916 697.276V603.64Z" fill="#E3EFFF" style="fill:#E3EFFF;fill:color(display-p3 0.8884 0.9362 1.0000);fill-opacity:1;"/>
<circle cx="356" cy="242" r="58" fill="#E3EFFF" style="fill:#E3EFFF;fill:color(display-p3 0.8902 0.9373 1.0000);fill-opacity:1;"/>
<circle cx="336" cy="851" r="58" fill="#E3EFFF" style="fill:#E3EFFF;fill:color(display-p3 0.8902 0.9373 1.0000);fill-opacity:1;"/>
<circle cx="694" cy="581" r="58" fill="#E3EFFF" style="fill:#E3EFFF;fill:color(display-p3 0.8902 0.9373 1.0000);fill-opacity:1;"/>
<circle cx="713" cy="32" r="58" fill="#E3EFFF" style="fill:#E3EFFF;fill:color(display-p3 0.8902 0.9373 1.0000);fill-opacity:1;"/>
<rect x="75" y="242" width="115" height="115" rx="14.9074" fill="#E3EFFF" style="fill:#E3EFFF;fill:color(display-p3 0.8902 0.9373 1.0000);fill-opacity:1;"/>
<path fill-rule="evenodd" clip-rule="evenodd" d="M627.934 322.558C625.15 320.44 623.848 316.998 623.848 313.5C623.848 310.002 625.15 306.56 627.934 304.442L635.907 298.377C637.03 297.515 637.326 295.962 636.616 294.697L624.794 274.802C624.262 273.882 623.257 273.365 622.193 273.365C621.838 273.365 621.483 273.422 621.188 273.537L611.731 277.232C608.459 278.51 604.814 277.935 601.761 276.197C598.613 274.404 596.153 271.446 595.625 267.862L594.232 258.415C594.055 257.035 592.813 256 591.336 256H567.69C566.213 256 564.971 257.035 564.794 258.415L563.407 267.823C562.875 271.431 560.392 274.421 557.229 276.239C554.201 277.98 550.588 278.518 547.335 277.247L537.838 273.537C537.484 273.422 537.129 273.365 536.774 273.365C535.769 273.365 534.764 273.882 534.232 274.802L522.41 294.697C521.641 295.962 521.996 297.515 523.119 298.377L531.092 304.442C533.876 306.56 535.178 310.002 535.178 313.5C535.178 316.998 533.876 320.44 531.092 322.558L523.119 328.622C521.996 329.485 521.7 331.037 522.41 332.302L534.232 352.197C534.764 353.117 535.769 353.635 536.833 353.635C537.188 353.635 537.543 353.577 537.838 353.462L547.295 349.768C550.567 348.49 554.212 349.065 557.265 350.803C560.413 352.596 562.873 355.554 563.401 359.138L564.794 368.585C564.971 369.965 566.213 371 567.69 371H591.336C592.813 371 594.055 369.965 594.232 368.585L595.619 359.177C596.151 355.569 598.634 352.579 601.797 350.761C604.825 349.02 608.438 348.482 611.692 349.753L621.188 353.462C621.542 353.577 621.897 353.635 622.252 353.635C623.257 353.635 624.262 353.117 624.794 352.197L636.616 332.302C637.326 331.037 637.03 329.485 635.907 328.622L627.934 322.558ZM579.497 328.407C587.73 328.407 594.404 321.733 594.404 313.5C594.404 305.267 587.73 298.592 579.497 298.592C571.264 298.592 564.589 305.267 564.589 313.5C564.589 321.733 571.264 328.407 579.497 328.407Z" fill="#E3EFFF" style="fill:#E3EFFF;fill:color(display-p3 0.8902 0.9373 1.0000);fill-opacity:1;"/>
<rect x="345" y="581" width="115" height="115" rx="14.9074" fill="#E3EFFF" style="fill:#E3EFFF;fill:color(display-p3 0.8902 0.9373 1.0000);fill-opacity:1;"/>
<path fill-rule="evenodd" clip-rule="evenodd" d="M470.934 58.5581C468.15 56.4402 466.848 52.9982 466.848 49.5C466.848 46.0018 468.15 42.5598 470.934 40.4419L478.907 34.3775C480.03 33.515 480.326 31.9625 479.616 30.6975L467.794 10.8025C467.262 9.8825 466.257 9.365 465.193 9.365C464.838 9.365 464.483 9.4225 464.188 9.5375L454.731 13.2317C451.459 14.5101 447.814 13.9351 444.761 12.1966C441.613 10.4037 439.153 7.4463 438.625 3.86188L437.232 -5.585C437.055 -6.965 435.813 -8 434.336 -8H410.69C409.213 -8 407.971 -6.965 407.794 -5.585L406.407 3.82278C405.875 7.4314 403.392 10.4212 400.229 12.2389C397.201 13.9797 393.588 14.5182 390.335 13.2472L380.838 9.5375C380.484 9.4225 380.129 9.365 379.774 9.365C378.769 9.365 377.764 9.8825 377.232 10.8025L365.41 30.6975C364.641 31.9625 364.996 33.515 366.119 34.3775L374.092 40.442C376.876 42.5598 378.178 46.0019 378.178 49.5C378.178 52.9981 376.876 56.4402 374.092 58.558L366.119 64.6225C364.996 65.485 364.7 67.0375 365.41 68.3025L377.232 88.1975C377.764 89.1175 378.769 89.635 379.833 89.635C380.188 89.635 380.543 89.5775 380.838 89.4625L390.295 85.7683C393.567 84.4899 397.212 85.0649 400.265 86.8034C403.413 88.5963 405.873 91.5537 406.401 95.1381L407.794 104.585C407.971 105.965 409.213 107 410.69 107H434.336C435.813 107 437.055 105.965 437.232 104.585L438.619 95.1772C439.151 91.5686 441.634 88.5788 444.797 86.7611C447.825 85.0203 451.438 84.4818 454.692 85.7528L464.188 89.4625C464.542 89.5775 464.897 89.635 465.252 89.635C466.257 89.635 467.262 89.1175 467.794 88.1975L479.616 68.3025C480.326 67.0375 480.03 65.485 478.907 64.6225L470.934 58.5581ZM422.497 64.4073C430.73 64.4073 437.404 57.733 437.404 49.4999C437.404 41.2668 430.73 34.5925 422.497 34.5925C414.264 34.5925 407.589 41.2668 407.589 49.4999C407.589 57.733 414.264 64.4073 422.497 64.4073Z" fill="#E3EFFF" style="fill:#E3EFFF;fill:color(display-p3 0.8902 0.9373 1.0000);fill-opacity:1;"/>
<path fill-rule="evenodd" clip-rule="evenodd" d="M140.934 928.558C138.15 926.44 136.848 922.998 136.848 919.5C136.848 916.002 138.15 912.56 140.934 910.442L148.907 904.377C150.03 903.515 150.326 901.962 149.616 900.697L137.794 880.802C137.262 879.882 136.257 879.365 135.193 879.365C134.838 879.365 134.483 879.422 134.188 879.537L124.731 883.232C121.459 884.51 117.814 883.935 114.761 882.197C111.613 880.404 109.153 877.446 108.625 873.862L107.232 864.415C107.055 863.035 105.813 862 104.336 862H80.6904C79.2126 862 77.9712 863.035 77.7939 864.415L76.407 873.823C75.875 877.431 73.3918 880.421 70.2294 882.239C67.2009 883.98 63.5882 884.518 60.3345 883.247L50.8383 879.537C50.4837 879.422 50.129 879.365 49.7743 879.365C48.7694 879.365 47.7645 879.882 47.2325 880.802L35.4098 900.697C34.6414 901.962 34.996 903.515 36.1192 904.377L44.0919 910.442C46.8761 912.56 48.1783 916.002 48.1783 919.5C48.1783 922.998 46.8761 926.44 44.0919 928.558L36.1192 934.622C34.996 935.485 34.7005 937.037 35.4098 938.302L47.2325 958.197C47.7645 959.117 48.7694 959.635 49.8334 959.635C50.1881 959.635 50.5428 959.577 50.8383 959.462L60.2948 955.768C63.5674 954.49 67.2119 955.065 70.265 956.803C73.4135 958.596 75.8728 961.554 76.4012 965.138L77.7939 974.585C77.9712 975.965 79.2126 977 80.6904 977H104.336C105.813 977 107.055 975.965 107.232 974.585L108.619 965.177C109.151 961.569 111.634 958.579 114.797 956.761C117.825 955.02 121.438 954.482 124.692 955.753L134.188 959.462C134.542 959.577 134.897 959.635 135.252 959.635C136.257 959.635 137.262 959.117 137.794 958.197L149.616 938.302C150.326 937.037 150.03 935.485 148.907 934.622L140.934 928.558ZM92.4969 934.407C100.73 934.407 107.404 927.733 107.404 919.5C107.404 911.267 100.73 904.592 92.4969 904.592C84.2638 904.592 77.5895 911.267 77.5895 919.5C77.5895 927.733 84.2638 934.407 92.4969 934.407Z" fill="#E3EFFF" style="fill:#E3EFFF;fill:color(display-p3 0.8902 0.9373 1.0000);fill-opacity:1;"/>
<path fill-rule="evenodd" clip-rule="evenodd" d="M596.934 774.558C594.15 772.44 592.848 768.998 592.848 765.5C592.848 762.002 594.15 758.56 596.934 756.442L604.907 750.377C606.03 749.515 606.326 747.962 605.616 746.697L593.794 726.802C593.262 725.882 592.257 725.365 591.193 725.365C590.838 725.365 590.483 725.422 590.188 725.537L580.731 729.232C577.459 730.51 573.814 729.935 570.761 728.197C567.613 726.404 565.153 723.446 564.625 719.862L563.232 710.415C563.055 709.035 561.813 708 560.336 708H536.69C535.213 708 533.971 709.035 533.794 710.415L532.407 719.823C531.875 723.431 529.392 726.421 526.229 728.239C523.201 729.98 519.588 730.518 516.335 729.247L506.838 725.537C506.484 725.422 506.129 725.365 505.774 725.365C504.769 725.365 503.764 725.882 503.232 726.802L491.41 746.697C490.641 747.962 490.996 749.515 492.119 750.377L500.092 756.442C502.876 758.56 504.178 762.002 504.178 765.5C504.178 768.998 502.876 772.44 500.092 774.558L492.119 780.622C490.996 781.485 490.7 783.037 491.41 784.302L503.232 804.197C503.764 805.117 504.769 805.635 505.833 805.635C506.188 805.635 506.543 805.577 506.838 805.462L516.295 801.768C519.567 800.49 523.212 801.065 526.265 802.803C529.413 804.596 531.873 807.554 532.401 811.138L533.794 820.585C533.971 821.965 535.213 823 536.69 823H560.336C561.813 823 563.055 821.965 563.232 820.585L564.619 811.177C565.151 807.569 567.634 804.579 570.797 802.761C573.825 801.02 577.438 800.482 580.692 801.753L590.188 805.462C590.542 805.577 590.897 805.635 591.252 805.635C592.257 805.635 593.262 805.117 593.794 804.197L605.616 784.302C606.326 783.037 606.03 781.485 604.907 780.622L596.934 774.558ZM548.497 780.407C556.73 780.407 563.404 773.733 563.404 765.5C563.404 757.267 556.73 750.592 548.497 750.592C540.264 750.592 533.589 757.267 533.589 765.5C533.589 773.733 540.264 780.407 548.497 780.407Z" fill="#E3EFFF" style="fill:#E3EFFF;fill:color(display-p3 0.8902 0.9373 1.0000);fill-opacity:1;"/>
</g>
<defs>
<clipPath id="clip0_3107_54251">
<rect width="713" height="982" fill="white" style="fill:white;fill-opacity:1;"/>
</clipPath>
</defs>
</svg>
